<svg id="Слой_1" data-name="Слой 1" xmlns="http://www.w3.org/2000/svg" viewBox="0 0 98 98"><path d="M913.86 388.06c0 6.89 6.49 12.09 15.79 12.09a24.61 24.61 0 0016-5.39c-4.59-3.88-13.21-11.21-21.74-18.84-4.28 2.08-10.05 5.85-10.05 12.14zM928 369c7.86-3.46 12.86-6.64 12.86-11.71 0-3.69-2.68-7.74-9-7.74s-9.73 4.12-9.73 8.68c-.06 4.32 2.55 7.61 5.87 10.77zm-44-39.22v98h98v-98zm73.79 75.27c-2.23-1.72-4.23-3.41-7.23-5.83C943.87 404 936.5 406 928 406c-15 0-23.8-7.83-23.8-16.78 0-8.15 6.34-13.72 15.1-17.47v-.28c-4-3.88-6.45-8.25-6.45-12.48 0-7.32 6.84-14.77 19.69-14.77 9.63 0 17.12 4.93 17.12 12.7 0 6.28-4.76 11.24-17 16v.3c6.57 5.87 13.89 12.36 18.87 16.64 3.57-4.18 5.93-10 7.45-17.46h9.16c-2.07 9.4-5.37 16.84-11.16 22.07 4.16 3.43 8.16 6.76 12.83 10.59z" transform="translate(-884.04 -329.78)" fill="#fff"/></svg>