<svg id="Слой_1" data-name="Слой 1" xmlns="http://www.w3.org/2000/svg" viewBox="0 0 98 98"><path d="M897.52 592.72q0 3.6 11 4.7v-13.29q-10.99 2.78-11 8.59zm20.83 12.51v19.25a29.59 29.59 0 009.78-3.92q4.36-3 4.37-6.4 0-6.45-14.15-8.93zM862 561v98h98v-98zm74.09 65.07q-6.8 4.3-17.74 5.67v9.84a2.79 2.79 0 01-1.41 2.39 6.25 6.25 0 01-3.56.95q-4.86 0-4.86-3.26v-9.44q-27-.26-27-9.37c0-2.22 1.52-3.33 4.58-3.33a9.89 9.89 0 015 1.37 34.79 34.79 0 005.35 2.67 43.59 43.59 0 0012 1.7v-21h-.44a41.33 41.33 0 01-14.81-2.81q-7.74-3.18-7.73-8.85 0-5.07 7.07-9.55a46.57 46.57 0 0115.91-6v-7.11a2.85 2.85 0 011.46-2.41 6.47 6.47 0 013.62-1q4.75 0 4.75 3.15V576h.22a69.6 69.6 0 0112.1 1.22c5.93 1.07 8.9 2.42 8.9 4.08q0 3.25-4.92 3.25a64.13 64.13 0 01-7.76-.79 59 59 0 00-8.54-.76v15q12.21.74 19.12 5.36 6.3 4.3 6.3 10.37.07 7.46-7.61 12.34z" transform="translate(-862 -561)" fill="#fff"/></svg>