<svg id="Слой_1" data-name="Слой 1" xmlns="http://www.w3.org/2000/svg" viewBox="0 0 1000 1000"><path class="cls-1" d="M900.5.5h99v99h-99z"/><path class="cls-2" d="M1543 304.67v98h-98v-98h98m1-1h-100v100h100v-100z" transform="translate(-544 -303.67)"/><path class="cls-1" d="M800.5.5h99v99h-99z"/><path class="cls-2" d="M1443 304.67v98h-98v-98h98m1-1h-100v100h100v-100z" transform="translate(-544 -303.67)"/><path class="cls-1" d="M700.5.5h99v99h-99z"/><path class="cls-2" d="M1343 304.67v98h-98v-98h98m1-1h-100v100h100v-100z" transform="translate(-544 -303.67)"/><path class="cls-1" d="M600.5.5h99v99h-99z"/><path class="cls-2" d="M1243 304.67v98h-98v-98h98m1-1h-100v100h100v-100z" transform="translate(-544 -303.67)"/><path class="cls-1" d="M500.5.5h99v99h-99z"/><path class="cls-2" d="M1143 304.67v98h-98v-98h98m1-1h-100v100h100v-100z" transform="translate(-544 -303.67)"/><path class="cls-1" d="M400.5.5h99v99h-99z"/><path class="cls-2" d="M1043 304.67v98h-98v-98h98m1-1H944v100h100v-100z" transform="translate(-544 -303.67)"/><path class="cls-1" d="M300.5.5h99v99h-99z"/><path class="cls-2" d="M943 304.67v98h-98v-98h98m1-1H844v100h100v-100z" transform="translate(-544 -303.67)"/><path class="cls-1" d="M200.5.5h99v99h-99z"/><path class="cls-2" d="M843 304.67v98h-98v-98h98m1-1H744v100h100v-100z" transform="translate(-544 -303.67)"/><path class="cls-1" d="M100.5.5h99v99h-99z"/><path class="cls-2" d="M743 304.67v98h-98v-98h98m1-1H644v100h100v-100z" transform="translate(-544 -303.67)"/><path class="cls-1" d="M.5.5h99v99H.5z"/><path class="cls-2" d="M643 304.67v98h-98v-98h98m1-1H544v100h100v-100z" transform="translate(-544 -303.67)"/><path class="cls-1" d="M900.5 100.5h99v99h-99z"/><path class="cls-2" d="M1543 404.67v98h-98v-98h98m1-1h-100v100h100v-100z" transform="translate(-544 -303.67)"/><path class="cls-1" d="M800.5 100.5h99v99h-99z"/><path class="cls-2" d="M1443 404.67v98h-98v-98h98m1-1h-100v100h100v-100z" transform="translate(-544 -303.67)"/><path class="cls-1" d="M700.5 100.5h99v99h-99z"/><path class="cls-2" d="M1343 404.67v98h-98v-98h98m1-1h-100v100h100v-100z" transform="translate(-544 -303.67)"/><path class="cls-1" d="M600.5 100.5h99v99h-99z"/><path class="cls-2" d="M1243 404.67v98h-98v-98h98m1-1h-100v100h100v-100z" transform="translate(-544 -303.67)"/><path class="cls-1" d="M500.5 100.5h99v99h-99z"/><path class="cls-2" d="M1143 404.67v98h-98v-98h98m1-1h-100v100h100v-100z" transform="translate(-544 -303.67)"/><path class="cls-1" d="M400.5 100.5h99v99h-99z"/><path class="cls-2" d="M1043 404.67v98h-98v-98h98m1-1H944v100h100v-100z" transform="translate(-544 -303.67)"/><path class="cls-1" d="M300.5 100.5h99v99h-99z"/><path class="cls-2" d="M943 404.67v98h-98v-98h98m1-1H844v100h100v-100z" transform="translate(-544 -303.67)"/><path class="cls-1" d="M200.5 100.5h99v99h-99z"/><path class="cls-2" d="M843 404.67v98h-98v-98h98m1-1H744v100h100v-100z" transform="translate(-544 -303.67)"/><path class="cls-1" d="M100.5 100.5h99v99h-99z"/><path class="cls-2" d="M743 404.67v98h-98v-98h98m1-1H644v100h100v-100z" transform="translate(-544 -303.67)"/><path class="cls-1" d="M.5 100.5h99v99H.5z"/><path class="cls-2" d="M643 404.67v98h-98v-98h98m1-1H544v100h100v-100z" transform="translate(-544 -303.67)"/><path class="cls-1" d="M900.5 200.5h99v99h-99z"/><path class="cls-2" d="M1543 504.67v98h-98v-98h98m1-1h-100v100h100v-100z" transform="translate(-544 -303.67)"/><path class="cls-1" d="M800.5 200.5h99v99h-99z"/><path class="cls-2" d="M1443 504.67v98h-98v-98h98m1-1h-100v100h100v-100z" transform="translate(-544 -303.67)"/><path class="cls-1" d="M700.5 200.5h99v99h-99z"/><path class="cls-2" d="M1343 504.67v98h-98v-98h98m1-1h-100v100h100v-100z" transform="translate(-544 -303.67)"/><path class="cls-1" d="M600.5 200.5h99v99h-99z"/><path class="cls-2" d="M1243 504.67v98h-98v-98h98m1-1h-100v100h100v-100z" transform="translate(-544 -303.67)"/><path class="cls-1" d="M500.5 200.5h99v99h-99z"/><path class="cls-2" d="M1143 504.67v98h-98v-98h98m1-1h-100v100h100v-100z" transform="translate(-544 -303.67)"/><path class="cls-1" d="M400.5 200.5h99v99h-99z"/><path class="cls-2" d="M1043 504.67v98h-98v-98h98m1-1H944v100h100v-100z" transform="translate(-544 -303.67)"/><path class="cls-1" d="M300.5 200.5h99v99h-99z"/><path class="cls-2" d="M943 504.67v98h-98v-98h98m1-1H844v100h100v-100z" transform="translate(-544 -303.67)"/><path class="cls-1" d="M200.5 200.5h99v99h-99z"/><path class="cls-2" d="M843 504.67v98h-98v-98h98m1-1H744v100h100v-100z" transform="translate(-544 -303.67)"/><path class="cls-1" d="M100.5 200.5h99v99h-99z"/><path class="cls-2" d="M743 504.67v98h-98v-98h98m1-1H644v100h100v-100z" transform="translate(-544 -303.67)"/><path class="cls-1" d="M.5 200.5h99v99H.5z"/><path class="cls-2" d="M643 504.67v98h-98v-98h98m1-1H544v100h100v-100z" transform="translate(-544 -303.67)"/><path class="cls-1" d="M900.5 300.5h99v99h-99z"/><path class="cls-2" d="M1543 604.67v98h-98v-98h98m1-1h-100v100h100v-100z" transform="translate(-544 -303.67)"/><path class="cls-1" d="M800.5 300.5h99v99h-99z"/><path class="cls-2" d="M1443 604.67v98h-98v-98h98m1-1h-100v100h100v-100z" transform="translate(-544 -303.67)"/><path class="cls-1" d="M700.5 300.5h99v99h-99z"/><path class="cls-2" d="M1343 604.67v98h-98v-98h98m1-1h-100v100h100v-100z" transform="translate(-544 -303.67)"/><path class="cls-1" d="M600.5 300.5h99v99h-99z"/><path class="cls-2" d="M1243 604.67v98h-98v-98h98m1-1h-100v100h100v-100z" transform="translate(-544 -303.67)"/><path class="cls-1" d="M500.5 300.5h99v99h-99z"/><path class="cls-2" d="M1143 604.67v98h-98v-98h98m1-1h-100v100h100v-100z" transform="translate(-544 -303.67)"/><path class="cls-1" d="M400.5 300.5h99v99h-99z"/><path class="cls-2" d="M1043 604.67v98h-98v-98h98m1-1H944v100h100v-100z" transform="translate(-544 -303.67)"/><path class="cls-1" d="M300.5 300.5h99v99h-99z"/><path class="cls-2" d="M943 604.67v98h-98v-98h98m1-1H844v100h100v-100z" transform="translate(-544 -303.67)"/><path class="cls-1" d="M200.5 300.5h99v99h-99z"/><path class="cls-2" d="M843 604.67v98h-98v-98h98m1-1H744v100h100v-100z" transform="translate(-544 -303.67)"/><path class="cls-1" d="M100.5 300.5h99v99h-99z"/><path class="cls-2" d="M743 604.67v98h-98v-98h98m1-1H644v100h100v-100z" transform="translate(-544 -303.67)"/><path class="cls-1" d="M.5 300.5h99v99H.5z"/><path class="cls-2" d="M643 604.67v98h-98v-98h98m1-1H544v100h100v-100z" transform="translate(-544 -303.67)"/><path class="cls-1" d="M900.5 400.5h99v99h-99z"/><path class="cls-2" d="M1543 704.67v98h-98v-98h98m1-1h-100v100h100v-100z" transform="translate(-544 -303.67)"/><path class="cls-1" d="M800.5 400.5h99v99h-99z"/><path class="cls-2" d="M1443 704.67v98h-98v-98h98m1-1h-100v100h100v-100z" transform="translate(-544 -303.67)"/><path class="cls-1" d="M700.5 400.5h99v99h-99z"/><path class="cls-2" d="M1343 704.67v98h-98v-98h98m1-1h-100v100h100v-100z" transform="translate(-544 -303.67)"/><path class="cls-1" d="M600.5 400.5h99v99h-99z"/><path class="cls-2" d="M1243 704.67v98h-98v-98h98m1-1h-100v100h100v-100z" transform="translate(-544 -303.67)"/><path class="cls-1" d="M500.5 400.5h99v99h-99z"/><path class="cls-2" d="M1143 704.67v98h-98v-98h98m1-1h-100v100h100v-100z" transform="translate(-544 -303.67)"/><path class="cls-1" d="M400.5 400.5h99v99h-99z"/><path class="cls-2" d="M1043 704.67v98h-98v-98h98m1-1H944v100h100v-100z" transform="translate(-544 -303.67)"/><path class="cls-1" d="M300.5 400.5h99v99h-99z"/><path class="cls-2" d="M943 704.67v98h-98v-98h98m1-1H844v100h100v-100z" transform="translate(-544 -303.67)"/><path class="cls-1" d="M200.5 400.5h99v99h-99z"/><path class="cls-2" d="M843 704.67v98h-98v-98h98m1-1H744v100h100v-100z" transform="translate(-544 -303.67)"/><path class="cls-1" d="M100.5 400.5h99v99h-99z"/><path class="cls-2" d="M743 704.67v98h-98v-98h98m1-1H644v100h100v-100z" transform="translate(-544 -303.67)"/><path class="cls-1" d="M.5 400.5h99v99H.5z"/><path class="cls-2" d="M643 704.67v98h-98v-98h98m1-1H544v100h100v-100z" transform="translate(-544 -303.67)"/><path class="cls-1" d="M900.5 500.5h99v99h-99z"/><path class="cls-2" d="M1543 804.67v98h-98v-98h98m1-1h-100v100h100v-100z" transform="translate(-544 -303.67)"/><path class="cls-1" d="M800.5 500.5h99v99h-99z"/><path class="cls-2" d="M1443 804.67v98h-98v-98h98m1-1h-100v100h100v-100z" transform="translate(-544 -303.67)"/><path class="cls-1" d="M700.5 500.5h99v99h-99z"/><path class="cls-2" d="M1343 804.67v98h-98v-98h98m1-1h-100v100h100v-100z" transform="translate(-544 -303.67)"/><path class="cls-1" d="M600.5 500.5h99v99h-99z"/><path class="cls-2" d="M1243 804.67v98h-98v-98h98m1-1h-100v100h100v-100z" transform="translate(-544 -303.67)"/><path class="cls-1" d="M500.5 500.5h99v99h-99z"/><path class="cls-2" d="M1143 804.67v98h-98v-98h98m1-1h-100v100h100v-100z" transform="translate(-544 -303.67)"/><path class="cls-1" d="M400.5 500.5h99v99h-99z"/><path class="cls-2" d="M1043 804.67v98h-98v-98h98m1-1H944v100h100v-100z" transform="translate(-544 -303.67)"/><path class="cls-1" d="M300.5 500.5h99v99h-99z"/><path class="cls-2" d="M943 804.67v98h-98v-98h98m1-1H844v100h100v-100z" transform="translate(-544 -303.67)"/><path class="cls-1" d="M200.5 500.5h99v99h-99z"/><path class="cls-2" d="M843 804.67v98h-98v-98h98m1-1H744v100h100v-100z" transform="translate(-544 -303.67)"/><path class="cls-1" d="M100.5 500.5h99v99h-99z"/><path class="cls-2" d="M743 804.67v98h-98v-98h98m1-1H644v100h100v-100z" transform="translate(-544 -303.67)"/><path class="cls-1" d="M.5 500.5h99v99H.5z"/><path class="cls-2" d="M643 804.67v98h-98v-98h98m1-1H544v100h100v-100z" transform="translate(-544 -303.67)"/><path class="cls-1" d="M900.5 600.5h99v99h-99z"/><path class="cls-2" d="M1543 904.67v98h-98v-98h98m1-1h-100v100h100v-100z" transform="translate(-544 -303.67)"/><path class="cls-1" d="M800.5 600.5h99v99h-99z"/><path class="cls-2" d="M1443 904.67v98h-98v-98h98m1-1h-100v100h100v-100z" transform="translate(-544 -303.67)"/><path class="cls-1" d="M700.5 600.5h99v99h-99z"/><path class="cls-2" d="M1343 904.67v98h-98v-98h98m1-1h-100v100h100v-100z" transform="translate(-544 -303.67)"/><path class="cls-1" d="M600.5 600.5h99v99h-99z"/><path class="cls-2" d="M1243 904.67v98h-98v-98h98m1-1h-100v100h100v-100z" transform="translate(-544 -303.67)"/><path class="cls-1" d="M500.5 600.5h99v99h-99z"/><path class="cls-2" d="M1143 904.67v98h-98v-98h98m1-1h-100v100h100v-100z" transform="translate(-544 -303.67)"/><path class="cls-1" d="M400.5 600.5h99v99h-99z"/><path class="cls-2" d="M1043 904.67v98h-98v-98h98m1-1H944v100h100v-100z" transform="translate(-544 -303.67)"/><path class="cls-1" d="M300.5 600.5h99v99h-99z"/><path class="cls-2" d="M943 904.67v98h-98v-98h98m1-1H844v100h100v-100z" transform="translate(-544 -303.67)"/><path class="cls-1" d="M200.5 600.5h99v99h-99z"/><path class="cls-2" d="M843 904.67v98h-98v-98h98m1-1H744v100h100v-100z" transform="translate(-544 -303.67)"/><path class="cls-1" d="M100.5 600.5h99v99h-99z"/><path class="cls-2" d="M743 904.67v98h-98v-98h98m1-1H644v100h100v-100z" transform="translate(-544 -303.67)"/><path class="cls-1" d="M.5 600.5h99v99H.5z"/><path class="cls-2" d="M643 904.67v98h-98v-98h98m1-1H544v100h100v-100z" transform="translate(-544 -303.67)"/><path class="cls-1" d="M900.5 700.5h99v99h-99z"/><path class="cls-2" d="M1543 1004.67v98h-98v-98h98m1-1h-100v100h100v-100z" transform="translate(-544 -303.67)"/><path class="cls-1" d="M800.5 700.5h99v99h-99z"/><path class="cls-2" d="M1443 1004.67v98h-98v-98h98m1-1h-100v100h100v-100z" transform="translate(-544 -303.67)"/><path class="cls-1" d="M700.5 700.5h99v99h-99z"/><path class="cls-2" d="M1343 1004.67v98h-98v-98h98m1-1h-100v100h100v-100z" transform="translate(-544 -303.67)"/><path class="cls-1" d="M600.5 700.5h99v99h-99z"/><path class="cls-2" d="M1243 1004.67v98h-98v-98h98m1-1h-100v100h100v-100z" transform="translate(-544 -303.67)"/><path class="cls-1" d="M500.5 700.5h99v99h-99z"/><path class="cls-2" d="M1143 1004.67v98h-98v-98h98m1-1h-100v100h100v-100z" transform="translate(-544 -303.67)"/><path class="cls-1" d="M400.5 700.5h99v99h-99z"/><path class="cls-2" d="M1043 1004.67v98h-98v-98h98m1-1H944v100h100v-100z" transform="translate(-544 -303.67)"/><path class="cls-1" d="M300.5 700.5h99v99h-99z"/><path class="cls-2" d="M943 1004.67v98h-98v-98h98m1-1H844v100h100v-100z" transform="translate(-544 -303.67)"/><path class="cls-1" d="M200.5 700.5h99v99h-99z"/><path class="cls-2" d="M843 1004.67v98h-98v-98h98m1-1H744v100h100v-100z" transform="translate(-544 -303.67)"/><path class="cls-1" d="M100.5 700.5h99v99h-99z"/><path class="cls-2" d="M743 1004.67v98h-98v-98h98m1-1H644v100h100v-100z" transform="translate(-544 -303.67)"/><path class="cls-1" d="M.5 700.5h99v99H.5z"/><path class="cls-2" d="M643 1004.67v98h-98v-98h98m1-1H544v100h100v-100z" transform="translate(-544 -303.67)"/><path class="cls-1" d="M900.5 800.5h99v99h-99z"/><path class="cls-2" d="M1543 1104.67v98h-98v-98h98m1-1h-100v100h100v-100z" transform="translate(-544 -303.67)"/><path class="cls-1" d="M800.5 800.5h99v99h-99z"/><path class="cls-2" d="M1443 1104.67v98h-98v-98h98m1-1h-100v100h100v-100z" transform="translate(-544 -303.67)"/><path class="cls-1" d="M700.5 800.5h99v99h-99z"/><path class="cls-2" d="M1343 1104.67v98h-98v-98h98m1-1h-100v100h100v-100z" transform="translate(-544 -303.67)"/><path class="cls-1" d="M600.5 800.5h99v99h-99z"/><path class="cls-2" d="M1243 1104.67v98h-98v-98h98m1-1h-100v100h100v-100z" transform="translate(-544 -303.67)"/><path class="cls-1" d="M500.5 800.5h99v99h-99z"/><path class="cls-2" d="M1143 1104.67v98h-98v-98h98m1-1h-100v100h100v-100z" transform="translate(-544 -303.67)"/><path class="cls-1" d="M400.5 800.5h99v99h-99z"/><path class="cls-2" d="M1043 1104.67v98h-98v-98h98m1-1H944v100h100v-100z" transform="translate(-544 -303.67)"/><path class="cls-1" d="M300.5 800.5h99v99h-99z"/><path class="cls-2" d="M943 1104.67v98h-98v-98h98m1-1H844v100h100v-100z" transform="translate(-544 -303.67)"/><path class="cls-1" d="M200.5 800.5h99v99h-99z"/><path class="cls-2" d="M843 1104.67v98h-98v-98h98m1-1H744v100h100v-100z" transform="translate(-544 -303.67)"/><path class="cls-1" d="M100.5 800.5h99v99h-99z"/><path class="cls-2" d="M743 1104.67v98h-98v-98h98m1-1H644v100h100v-100z" transform="translate(-544 -303.67)"/><path class="cls-1" d="M.5 800.5h99v99H.5z"/><path class="cls-2" d="M643 1104.67v98h-98v-98h98m1-1H544v100h100v-100z" transform="translate(-544 -303.67)"/><path class="cls-1" d="M900.5 900.5h99v99h-99z"/><path class="cls-2" d="M1543 1204.67v98h-98v-98h98m1-1h-100v100h100v-100z" transform="translate(-544 -303.67)"/><path class="cls-1" d="M800.5 900.5h99v99h-99z"/><path class="cls-2" d="M1443 1204.67v98h-98v-98h98m1-1h-100v100h100v-100z" transform="translate(-544 -303.67)"/><path class="cls-1" d="M700.5 900.5h99v99h-99z"/><path class="cls-2" d="M1343 1204.67v98h-98v-98h98m1-1h-100v100h100v-100z" transform="translate(-544 -303.67)"/><path class="cls-1" d="M600.5 900.5h99v99h-99z"/><path class="cls-2" d="M1243 1204.67v98h-98v-98h98m1-1h-100v100h100v-100z" transform="translate(-544 -303.67)"/><path class="cls-1" d="M500.5 900.5h99v99h-99z"/><path class="cls-2" d="M1143 1204.67v98h-98v-98h98m1-1h-100v100h100v-100z" transform="translate(-544 -303.67)"/><path class="cls-1" d="M400.5 900.5h99v99h-99z"/><path class="cls-2" d="M1043 1204.67v98h-98v-98h98m1-1H944v100h100v-100z" transform="translate(-544 -303.67)"/><path class="cls-1" d="M300.5 900.5h99v99h-99z"/><path class="cls-2" d="M943 1204.67v98h-98v-98h98m1-1H844v100h100v-100z" transform="translate(-544 -303.67)"/><path class="cls-1" d="M200.5 900.5h99v99h-99z"/><path class="cls-2" d="M843 1204.67v98h-98v-98h98m1-1H744v100h100v-100z" transform="translate(-544 -303.67)"/><path class="cls-1" d="M100.5 900.5h99v99h-99z"/><path class="cls-2" d="M743 1204.67v98h-98v-98h98m1-1H644v100h100v-100z" transform="translate(-544 -303.67)"/><path class="cls-1" d="M.5 900.5h99v99H.5z"/><path class="cls-2" d="M643 1204.67v98h-98v-98h98m1-1H544v100h100v-100z" transform="translate(-544 -303.67)"/><path class="cls-2" d="M1542 305.67v996H546v-996h996m2-2H544v1000h1000v-1000z" transform="translate(-544 -303.67)"/></svg>