<svg viewBox="0 0 1000 1000" xmlns="http://www.w3.org/2000/svg" xmlns:xlink="http://www.w3.org/1999/xlink"><style>:root&gt;svg{display:none}:root&gt;svg:target{display:block}</style><svg data-name="Слой 1" viewBox="0 0 100 100" id="rect" xmlns="http://www.w3.org/2000/svg"><path fill="#37cbff" d="M.5.5h99v99H.5z"/><path d="M99 1v98H1V1h98m1-1H0v100h100V0z" fill="#22ffd7"/></svg><svg data-name="Слой 1" viewBox="0 0 1000 1000" id="rect-rects" xmlns="http://www.w3.org/2000/svg"><path class="bcls-1" d="M900.5.5h99v99h-99z"/><path class="bcls-2" d="M999 1v98h-98V1h98m1-1H900v100h100V0z"/><path class="bcls-1" d="M800.5.5h99v99h-99z"/><path class="bcls-2" d="M899 1v98h-98V1h98m1-1H800v100h100V0z"/><path class="bcls-1" d="M700.5.5h99v99h-99z"/><path class="bcls-2" d="M799 1v98h-98V1h98m1-1H700v100h100V0z"/><path class="bcls-1" d="M600.5.5h99v99h-99z"/><path class="bcls-2" d="M699 1v98h-98V1h98m1-1H600v100h100V0z"/><path class="bcls-1" d="M500.5.5h99v99h-99z"/><path class="bcls-2" d="M599 1v98h-98V1h98m1-1H500v100h100V0z"/><path class="bcls-1" d="M400.5.5h99v99h-99z"/><path class="bcls-2" d="M499 1v98h-98V1h98m1-1H400v100h100V0z"/><path class="bcls-1" d="M300.5.5h99v99h-99z"/><path class="bcls-2" d="M399 1v98h-98V1h98m1-1H300v100h100V0z"/><path class="bcls-1" d="M200.5.5h99v99h-99z"/><path class="bcls-2" d="M299 1v98h-98V1h98m1-1H200v100h100V0z"/><path class="bcls-1" d="M100.5.5h99v99h-99z"/><path class="bcls-2" d="M199 1v98h-98V1h98m1-1H100v100h100V0z"/><path class="bcls-1" d="M.5.5h99v99H.5z"/><path class="bcls-2" d="M99 1v98H1V1h98m1-1H0v100h100V0z"/><path class="bcls-1" d="M900.5 100.5h99v99h-99z"/><path class="bcls-2" d="M999 101v98h-98v-98h98m1-1H900v100h100V100z"/><path class="bcls-1" d="M800.5 100.5h99v99h-99z"/><path class="bcls-2" d="M899 101v98h-98v-98h98m1-1H800v100h100V100z"/><path class="bcls-1" d="M700.5 100.5h99v99h-99z"/><path class="bcls-2" d="M799 101v98h-98v-98h98m1-1H700v100h100V100z"/><path class="bcls-1" d="M600.5 100.5h99v99h-99z"/><path class="bcls-2" d="M699 101v98h-98v-98h98m1-1H600v100h100V100z"/><path class="bcls-1" d="M500.5 100.5h99v99h-99z"/><path class="bcls-2" d="M599 101v98h-98v-98h98m1-1H500v100h100V100z"/><path class="bcls-1" d="M400.5 100.5h99v99h-99z"/><path class="bcls-2" d="M499 101v98h-98v-98h98m1-1H400v100h100V100z"/><path class="bcls-1" d="M300.5 100.5h99v99h-99z"/><path class="bcls-2" d="M399 101v98h-98v-98h98m1-1H300v100h100V100z"/><path class="bcls-1" d="M200.5 100.5h99v99h-99z"/><path class="bcls-2" d="M299 101v98h-98v-98h98m1-1H200v100h100V100z"/><path class="bcls-1" d="M100.5 100.5h99v99h-99z"/><path class="bcls-2" d="M199 101v98h-98v-98h98m1-1H100v100h100V100z"/><path class="bcls-1" d="M.5 100.5h99v99H.5z"/><path class="bcls-2" d="M99 101v98H1v-98h98m1-1H0v100h100V100z"/><path class="bcls-1" d="M900.5 200.5h99v99h-99z"/><path class="bcls-2" d="M999 201v98h-98v-98h98m1-1H900v100h100V200z"/><path class="bcls-1" d="M800.5 200.5h99v99h-99z"/><path class="bcls-2" d="M899 201v98h-98v-98h98m1-1H800v100h100V200z"/><path class="bcls-1" d="M700.5 200.5h99v99h-99z"/><path class="bcls-2" d="M799 201v98h-98v-98h98m1-1H700v100h100V200z"/><path class="bcls-1" d="M600.5 200.5h99v99h-99z"/><path class="bcls-2" d="M699 201v98h-98v-98h98m1-1H600v100h100V200z"/><path class="bcls-1" d="M500.5 200.5h99v99h-99z"/><path class="bcls-2" d="M599 201v98h-98v-98h98m1-1H500v100h100V200z"/><path class="bcls-1" d="M400.5 200.5h99v99h-99z"/><path class="bcls-2" d="M499 201v98h-98v-98h98m1-1H400v100h100V200z"/><path class="bcls-1" d="M300.5 200.5h99v99h-99z"/><path class="bcls-2" d="M399 201v98h-98v-98h98m1-1H300v100h100V200z"/><path class="bcls-1" d="M200.5 200.5h99v99h-99z"/><path class="bcls-2" d="M299 201v98h-98v-98h98m1-1H200v100h100V200z"/><path class="bcls-1" d="M100.5 200.5h99v99h-99z"/><path class="bcls-2" d="M199 201v98h-98v-98h98m1-1H100v100h100V200z"/><path class="bcls-1" d="M.5 200.5h99v99H.5z"/><path class="bcls-2" d="M99 201v98H1v-98h98m1-1H0v100h100V200z"/><path class="bcls-1" d="M900.5 300.5h99v99h-99z"/><path class="bcls-2" d="M999 301v98h-98v-98h98m1-1H900v100h100V300z"/><path class="bcls-1" d="M800.5 300.5h99v99h-99z"/><path class="bcls-2" d="M899 301v98h-98v-98h98m1-1H800v100h100V300z"/><path class="bcls-1" d="M700.5 300.5h99v99h-99z"/><path class="bcls-2" d="M799 301v98h-98v-98h98m1-1H700v100h100V300z"/><path class="bcls-1" d="M600.5 300.5h99v99h-99z"/><path class="bcls-2" d="M699 301v98h-98v-98h98m1-1H600v100h100V300z"/><path class="bcls-1" d="M500.5 300.5h99v99h-99z"/><path class="bcls-2" d="M599 301v98h-98v-98h98m1-1H500v100h100V300z"/><path class="bcls-1" d="M400.5 300.5h99v99h-99z"/><path class="bcls-2" d="M499 301v98h-98v-98h98m1-1H400v100h100V300z"/><path class="bcls-1" d="M300.5 300.5h99v99h-99z"/><path class="bcls-2" d="M399 301v98h-98v-98h98m1-1H300v100h100V300z"/><path class="bcls-1" d="M200.5 300.5h99v99h-99z"/><path class="bcls-2" d="M299 301v98h-98v-98h98m1-1H200v100h100V300z"/><path class="bcls-1" d="M100.5 300.5h99v99h-99z"/><path class="bcls-2" d="M199 301v98h-98v-98h98m1-1H100v100h100V300z"/><path class="bcls-1" d="M.5 300.5h99v99H.5z"/><path class="bcls-2" d="M99 301v98H1v-98h98m1-1H0v100h100V300z"/><path class="bcls-1" d="M900.5 400.5h99v99h-99z"/><path class="bcls-2" d="M999 401v98h-98v-98h98m1-1H900v100h100V400z"/><path class="bcls-1" d="M800.5 400.5h99v99h-99z"/><path class="bcls-2" d="M899 401v98h-98v-98h98m1-1H800v100h100V400z"/><path class="bcls-1" d="M700.5 400.5h99v99h-99z"/><path class="bcls-2" d="M799 401v98h-98v-98h98m1-1H700v100h100V400z"/><path class="bcls-1" d="M600.5 400.5h99v99h-99z"/><path class="bcls-2" d="M699 401v98h-98v-98h98m1-1H600v100h100V400z"/><path class="bcls-1" d="M500.5 400.5h99v99h-99z"/><path class="bcls-2" d="M599 401v98h-98v-98h98m1-1H500v100h100V400z"/><path class="bcls-1" d="M400.5 400.5h99v99h-99z"/><path class="bcls-2" d="M499 401v98h-98v-98h98m1-1H400v100h100V400z"/><path class="bcls-1" d="M300.5 400.5h99v99h-99z"/><path class="bcls-2" d="M399 401v98h-98v-98h98m1-1H300v100h100V400z"/><path class="bcls-1" d="M200.5 400.5h99v99h-99z"/><path class="bcls-2" d="M299 401v98h-98v-98h98m1-1H200v100h100V400z"/><path class="bcls-1" d="M100.5 400.5h99v99h-99z"/><path class="bcls-2" d="M199 401v98h-98v-98h98m1-1H100v100h100V400z"/><path class="bcls-1" d="M.5 400.5h99v99H.5z"/><path class="bcls-2" d="M99 401v98H1v-98h98m1-1H0v100h100V400z"/><path class="bcls-1" d="M900.5 500.5h99v99h-99z"/><path class="bcls-2" d="M999 501v98h-98v-98h98m1-1H900v100h100V500z"/><path class="bcls-1" d="M800.5 500.5h99v99h-99z"/><path class="bcls-2" d="M899 501v98h-98v-98h98m1-1H800v100h100V500z"/><path class="bcls-1" d="M700.5 500.5h99v99h-99z"/><path class="bcls-2" d="M799 501v98h-98v-98h98m1-1H700v100h100V500z"/><path class="bcls-1" d="M600.5 500.5h99v99h-99z"/><path class="bcls-2" d="M699 501v98h-98v-98h98m1-1H600v100h100V500z"/><path class="bcls-1" d="M500.5 500.5h99v99h-99z"/><path class="bcls-2" d="M599 501v98h-98v-98h98m1-1H500v100h100V500z"/><path class="bcls-1" d="M400.5 500.5h99v99h-99z"/><path class="bcls-2" d="M499 501v98h-98v-98h98m1-1H400v100h100V500z"/><path class="bcls-1" d="M300.5 500.5h99v99h-99z"/><path class="bcls-2" d="M399 501v98h-98v-98h98m1-1H300v100h100V500z"/><path class="bcls-1" d="M200.5 500.5h99v99h-99z"/><path class="bcls-2" d="M299 501v98h-98v-98h98m1-1H200v100h100V500z"/><path class="bcls-1" d="M100.5 500.5h99v99h-99z"/><path class="bcls-2" d="M199 501v98h-98v-98h98m1-1H100v100h100V500z"/><path class="bcls-1" d="M.5 500.5h99v99H.5z"/><path class="bcls-2" d="M99 501v98H1v-98h98m1-1H0v100h100V500z"/><path class="bcls-1" d="M900.5 600.5h99v99h-99z"/><path class="bcls-2" d="M999 601v98h-98v-98h98m1-1H900v100h100V600z"/><path class="bcls-1" d="M800.5 600.5h99v99h-99z"/><path class="bcls-2" d="M899 601v98h-98v-98h98m1-1H800v100h100V600z"/><path class="bcls-1" d="M700.5 600.5h99v99h-99z"/><path class="bcls-2" d="M799 601v98h-98v-98h98m1-1H700v100h100V600z"/><path class="bcls-1" d="M600.5 600.5h99v99h-99z"/><path class="bcls-2" d="M699 601v98h-98v-98h98m1-1H600v100h100V600z"/><path class="bcls-1" d="M500.5 600.5h99v99h-99z"/><path class="bcls-2" d="M599 601v98h-98v-98h98m1-1H500v100h100V600z"/><path class="bcls-1" d="M400.5 600.5h99v99h-99z"/><path class="bcls-2" d="M499 601v98h-98v-98h98m1-1H400v100h100V600z"/><path class="bcls-1" d="M300.5 600.5h99v99h-99z"/><path class="bcls-2" d="M399 601v98h-98v-98h98m1-1H300v100h100V600z"/><path class="bcls-1" d="M200.5 600.5h99v99h-99z"/><path class="bcls-2" d="M299 601v98h-98v-98h98m1-1H200v100h100V600z"/><path class="bcls-1" d="M100.5 600.5h99v99h-99z"/><path class="bcls-2" d="M199 601v98h-98v-98h98m1-1H100v100h100V600z"/><path class="bcls-1" d="M.5 600.5h99v99H.5z"/><path class="bcls-2" d="M99 601v98H1v-98h98m1-1H0v100h100V600z"/><path class="bcls-1" d="M900.5 700.5h99v99h-99z"/><path class="bcls-2" d="M999 701v98h-98v-98h98m1-1H900v100h100V700z"/><path class="bcls-1" d="M800.5 700.5h99v99h-99z"/><path class="bcls-2" d="M899 701v98h-98v-98h98m1-1H800v100h100V700z"/><path class="bcls-1" d="M700.5 700.5h99v99h-99z"/><path class="bcls-2" d="M799 701v98h-98v-98h98m1-1H700v100h100V700z"/><path class="bcls-1" d="M600.5 700.5h99v99h-99z"/><path class="bcls-2" d="M699 701v98h-98v-98h98m1-1H600v100h100V700z"/><path class="bcls-1" d="M500.5 700.5h99v99h-99z"/><path class="bcls-2" d="M599 701v98h-98v-98h98m1-1H500v100h100V700z"/><path class="bcls-1" d="M400.5 700.5h99v99h-99z"/><path class="bcls-2" d="M499 701v98h-98v-98h98m1-1H400v100h100V700z"/><path class="bcls-1" d="M300.5 700.5h99v99h-99z"/><path class="bcls-2" d="M399 701v98h-98v-98h98m1-1H300v100h100V700z"/><path class="bcls-1" d="M200.5 700.5h99v99h-99z"/><path class="bcls-2" d="M299 701v98h-98v-98h98m1-1H200v100h100V700z"/><path class="bcls-1" d="M100.5 700.5h99v99h-99z"/><path class="bcls-2" d="M199 701v98h-98v-98h98m1-1H100v100h100V700z"/><path class="bcls-1" d="M.5 700.5h99v99H.5z"/><path class="bcls-2" d="M99 701v98H1v-98h98m1-1H0v100h100V700z"/><path class="bcls-1" d="M900.5 800.5h99v99h-99z"/><path class="bcls-2" d="M999 801v98h-98v-98h98m1-1H900v100h100V800z"/><path class="bcls-1" d="M800.5 800.5h99v99h-99z"/><path class="bcls-2" d="M899 801v98h-98v-98h98m1-1H800v100h100V800z"/><path class="bcls-1" d="M700.5 800.5h99v99h-99z"/><path class="bcls-2" d="M799 801v98h-98v-98h98m1-1H700v100h100V800z"/><path class="bcls-1" d="M600.5 800.5h99v99h-99z"/><path class="bcls-2" d="M699 801v98h-98v-98h98m1-1H600v100h100V800z"/><path class="bcls-1" d="M500.5 800.5h99v99h-99z"/><path class="bcls-2" d="M599 801v98h-98v-98h98m1-1H500v100h100V800z"/><path class="bcls-1" d="M400.5 800.5h99v99h-99z"/><path class="bcls-2" d="M499 801v98h-98v-98h98m1-1H400v100h100V800z"/><path class="bcls-1" d="M300.5 800.5h99v99h-99z"/><path class="bcls-2" d="M399 801v98h-98v-98h98m1-1H300v100h100V800z"/><path class="bcls-1" d="M200.5 800.5h99v99h-99z"/><path class="bcls-2" d="M299 801v98h-98v-98h98m1-1H200v100h100V800z"/><path class="bcls-1" d="M100.5 800.5h99v99h-99z"/><path class="bcls-2" d="M199 801v98h-98v-98h98m1-1H100v100h100V800z"/><path class="bcls-1" d="M.5 800.5h99v99H.5z"/><path class="bcls-2" d="M99 801v98H1v-98h98m1-1H0v100h100V800z"/><path class="bcls-1" d="M900.5 900.5h99v99h-99z"/><path class="bcls-2" d="M999 901v98h-98v-98h98m1-1H900v100h100V900z"/><path class="bcls-1" d="M800.5 900.5h99v99h-99z"/><path class="bcls-2" d="M899 901v98h-98v-98h98m1-1H800v100h100V900z"/><path class="bcls-1" d="M700.5 900.5h99v99h-99z"/><path class="bcls-2" d="M799 901v98h-98v-98h98m1-1H700v100h100V900z"/><path class="bcls-1" d="M600.5 900.5h99v99h-99z"/><path class="bcls-2" d="M699 901v98h-98v-98h98m1-1H600v100h100V900z"/><path class="bcls-1" d="M500.5 900.5h99v99h-99z"/><path class="bcls-2" d="M599 901v98h-98v-98h98m1-1H500v100h100V900z"/><path class="bcls-1" d="M400.5 900.5h99v99h-99z"/><path class="bcls-2" d="M499 901v98h-98v-98h98m1-1H400v100h100V900z"/><path class="bcls-1" d="M300.5 900.5h99v99h-99z"/><path class="bcls-2" d="M399 901v98h-98v-98h98m1-1H300v100h100V900z"/><path class="bcls-1" d="M200.5 900.5h99v99h-99z"/><path class="bcls-2" d="M299 901v98h-98v-98h98m1-1H200v100h100V900z"/><path class="bcls-1" d="M100.5 900.5h99v99h-99z"/><path class="bcls-2" d="M199 901v98h-98v-98h98m1-1H100v100h100V900z"/><path class="bcls-1" d="M.5 900.5h99v99H.5z"/><path class="bcls-2" d="M99 901v98H1v-98h98m1-1H0v100h100V900z"/><path class="bcls-2" d="M998 2v996H2V2h996m2-2H0v1000h1000V0z"/></svg><svg viewBox="0 0 200 100" id="rects" xmlns="http://www.w3.org/2000/svg"><path class="ccls-1" d="M100.5.5h99v99h-99z"/><path class="ccls-2" d="M199 1v98h-98V1h98m1-1H100v100h100V0z"/><path class="ccls-1" d="M.5.5h99v99H.5z"/><path class="ccls-2" d="M99 1v98H1V1h98m1-1H0v100h100V0z"/></svg></svg>