<svg viewBox="0 0 98 98" xmlns="http://www.w3.org/2000/svg" xmlns:xlink="http://www.w3.org/1999/xlink"><style>:root&gt;svg{display:none}:root&gt;svg:target{display:block}</style><svg data-name="Слой 1" viewBox="0 0 98 98" id="icon-ampersant" xmlns="http://www.w3.org/2000/svg"><path d="M29.82 58.28c0 6.89 6.49 12.09 15.79 12.09a24.61 24.61 0 0016-5.39C57.02 61.1 48.4 53.77 39.87 46.14c-4.28 2.08-10.05 5.85-10.05 12.14zm14.14-19.06c7.86-3.46 12.86-6.64 12.86-11.71 0-3.69-2.68-7.74-9-7.74s-9.73 4.12-9.73 8.68c-.06 4.32 2.55 7.61 5.87 10.77zM-.04 0v98h98V0zm73.79 75.27c-2.23-1.72-4.23-3.41-7.23-5.83-6.69 4.78-14.06 6.78-22.56 6.78-15 0-23.8-7.83-23.8-16.78 0-8.15 6.34-13.72 15.1-17.47v-.28c-4-3.88-6.45-8.25-6.45-12.48 0-7.32 6.84-14.77 19.69-14.77 9.63 0 17.12 4.93 17.12 12.7 0 6.28-4.76 11.24-17 16v.3c6.57 5.87 13.89 12.36 18.87 16.64 3.57-4.18 5.93-10 7.45-17.46h9.16c-2.07 9.4-5.37 16.84-11.16 22.07 4.16 3.43 8.16 6.76 12.83 10.59z" fill="#fff"/></svg><svg data-name="Слой 1" viewBox="0 0 98 98" id="icon-arch" xmlns="http://www.w3.org/2000/svg"><path d="M0 0v98h98V0zm68.49 86.94c0-13-8.32-65.51-18.57-65.51S31.35 73.94 31.35 86.94H18.13c0-22.26 14.23-80 31.79-80s31.79 57.76 31.79 80z" fill="#fff"/></svg><svg data-name="Слой 1" viewBox="0 0 98 98" id="icon-asterisk" xmlns="http://www.w3.org/2000/svg"><path d="M0 0v98h98V0zm84.16 53.5l-29.91-3.09 19 23.22-12.48 7L48.9 53.5 35.63 80.78l-11.29-7 18.82-24-29.32 3.67v-13.1L43 44 24.38 20l12.08-6.77 12.28 26.89 12.48-27.08 11.88 6.58-18.81 24.57 29.91-3.87z" fill="#fff"/></svg><svg data-name="Слой 1" viewBox="0 0 98 98" id="icon-circle" xmlns="http://www.w3.org/2000/svg"><path d="M0 0v98h98V0zm49 86.94A37.94 37.94 0 1186.94 49 37.94 37.94 0 0149 86.94z" fill="#fff"/></svg><svg data-name="Слой 1" viewBox="0 0 98 98" id="icon-circle-outline" xmlns="http://www.w3.org/2000/svg"><path d="M49 24.59a24.58 24.58 0 1024.58 24.58A24.58 24.58 0 0049 24.59zM0 0v98h98V0zm49 90.25a41.08 41.08 0 1141.08-41.08A41.08 41.08 0 0149 90.25z" fill="#fff"/></svg><svg data-name="Слой 1" viewBox="0 0 98 98" id="icon-dollar" xmlns="http://www.w3.org/2000/svg"><path d="M35.52 31.72q0 3.6 11 4.7V23.13q-10.99 2.78-11 8.59zm20.83 12.51v19.25a29.59 29.59 0 009.78-3.92q4.36-3 4.37-6.4 0-6.45-14.15-8.93zM0 0v98h98V0zm74.09 65.07q-6.8 4.3-17.74 5.67v9.84a2.79 2.79 0 01-1.41 2.39 6.25 6.25 0 01-3.56.95q-4.86 0-4.86-3.26v-9.44q-27-.26-27-9.37c0-2.22 1.52-3.33 4.58-3.33a9.89 9.89 0 015 1.37 34.79 34.79 0 005.35 2.67 43.59 43.59 0 0012 1.7v-21h-.44a41.33 41.33 0 01-14.81-2.81q-7.74-3.18-7.73-8.85 0-5.07 7.07-9.55a46.57 46.57 0 0115.91-6V8.94a2.85 2.85 0 011.46-2.41 6.47 6.47 0 013.62-1q4.75 0 4.75 3.15V15h.22a69.6 69.6 0 0112.1 1.22c5.93 1.07 8.9 2.42 8.9 4.08q0 3.25-4.92 3.25a64.13 64.13 0 01-7.76-.79 59 59 0 00-8.54-.76v15q12.21.74 19.12 5.36 6.3 4.3 6.3 10.37.07 7.46-7.61 12.34z" fill="#fff"/></svg><svg data-name="Слой 1" viewBox="0 0 98 98" id="icon-rectangle" xmlns="http://www.w3.org/2000/svg"><path d="M0 0v98h98V0zm76.93 76.93H21.07V21.08h55.86z" fill="#fff"/></svg><svg data-name="Слой 1" viewBox="0 0 98 98" id="icon-rhombus" xmlns="http://www.w3.org/2000/svg"><path d="M0 0v98h98V0zm50.75 87.23L21.96 49l28.79-37.89L79.55 49z" fill="#fff"/></svg><svg data-name="Слой 1" viewBox="0 0 98 98" id="icon-star" xmlns="http://www.w3.org/2000/svg"><path d="M0 0v98h98V0zm72.26 84.79L49 72.57 25.74 84.79l4.44-25.89-18.81-18.35 26-3.77L49 13.21l11.63 23.57 26 3.77L67.82 58.9z" fill="#fff"/></svg><svg data-name="Слой 1" viewBox="0 0 98 98" id="icon-triangle" xmlns="http://www.w3.org/2000/svg"><path d="M0 0v98h98V0zm13.79 77.67l35.12-64.48L84 77.67z" fill="#fff"/></svg></svg>